<svg width="30" height="30" viewBox="0 0 30 30" fill="none" xmlns="http://www.w3.org/2000/svg">
<path d="M15 0C6.72 0 0 6.52112 0 14.5561C0 22.591 6.72 29.1122 15 29.1122C23.28 29.1122 30 22.591 30 14.5561C30 6.52112 23.28 0 15 0ZM6.9 13.4353C7.155 11.7031 7.95 10.1456 9.195 8.92288C12.195 6.02622 16.92 5.8661 20.13 8.39886V7.01603C20.13 6.41923 20.64 5.92432 21.255 5.92432C21.87 5.92432 22.38 6.41923 22.38 7.01603V10.9025C22.38 11.4993 21.87 11.9942 21.255 11.9942H17.25C16.635 11.9942 16.125 11.4993 16.125 10.9025C16.125 10.3057 16.635 9.8108 17.25 9.8108H18.375C16.05 8.23874 12.84 8.45708 10.77 10.4658C9.87 11.3392 9.3 12.4746 9.105 13.7409C9.03 14.2795 8.55 14.6725 7.995 14.6725C7.935 14.6725 7.89 14.6725 7.83 14.658C7.245 14.5852 6.81 14.0321 6.9 13.4353ZM20.805 20.1893C19.2 21.7468 17.1 22.5183 15 22.5183C13.17 22.5183 11.355 21.8923 9.855 20.7133V22.0816C9.855 22.6784 9.345 23.1733 8.73 23.1733C8.115 23.1733 7.605 22.6784 7.605 22.0816V18.1951C7.605 17.5983 8.115 17.1034 8.73 17.1034H12.735C13.35 17.1034 13.86 17.5983 13.86 18.1951C13.86 18.7919 13.35 19.2868 12.735 19.2868H11.61C13.935 20.8589 17.145 20.6405 19.215 18.6318C20.115 17.7584 20.685 16.623 20.88 15.3567C20.97 14.7599 21.525 14.3377 22.155 14.4251C22.77 14.5124 23.19 15.0655 23.115 15.6623C22.845 17.4236 22.05 18.9811 20.805 20.1893Z" fill="white"/>
</svg>
